<?xml version="1.0" standalone="no"?>
<!DOCTYPE svg PUBLIC "-//W3C//DTD SVG 20010904//EN"
 "http://www.w3.org/TR/2001/REC-SVG-20010904/DTD/svg10.dtd">
<svg version="1.0" xmlns="http://www.w3.org/2000/svg"
 width="1536.000000pt" height="1536.000000pt" viewBox="0 0 1536.000000 1536.000000"
 preserveAspectRatio="xMidYMid meet">
<metadata>
Created by potrace 1.10, written by Peter Selinger 2001-2011
</metadata>
<g transform="translate(0.000000,1536.000000) scale(0.100000,-0.100000)"
fill="#000000" stroke="none">
<path d="M2850 14074 c-159 -43 -276 -156 -316 -307 -21 -77 -21 -9007 0
-9172 13 -107 20 -138 53 -255 73 -261 231 -529 428 -726 82 -81 238 -204 332
-262 162 -98 407 -185 633 -223 60 -11 735 -14 3325 -17 2956 -3 3256 -1 3317
13 159 38 284 156 324 307 20 78 21 10256 0 10333 -21 77 -55 135 -117 196
-62 62 -113 90 -204 114 -53 13 -469 15 -3890 14 -3339 0 -3837 -2 -3885 -15z
m7254 -843 c4 -5 6 -1520 6 -3367 0 -2684 -2 -3359 -12 -3366 -7 -4 -1361 -8
-3008 -8 -3117 0 -3098 0 -3251 -40 -147 -38 -251 -76 -377 -137 -46 -23 -77
-32 -83 -26 -10 10 -14 6928 -3 6944 7 12 6721 12 6728 0z m-4 -7596 c14 -16
16 -383 2 -397 -11 -11 -6583 -11 -6595 1 -22 22 127 188 233 260 111 76 236
123 365 140 39 5 1377 9 3026 10 2576 1 2958 -1 2969 -14z m5 -1265 c8 -13 8
-387 0 -400 -4 -6 -1109 -10 -2988 -10 -3183 0 -3043 -2 -3177 46 -61 21 -154
69 -209 107 -93 64 -238 224 -227 252 5 13 370 15 3300 15 2278 0 3297 -3
3301 -10z"/>
<path d="M6655 12389 c-142 -32 -259 -134 -311 -272 -9 -23 -19 -80 -23 -127
l-6 -85 -35 -17 c-220 -104 -305 -161 -430 -287 -251 -252 -370 -538 -370
-890 0 -344 115 -631 350 -875 234 -243 531 -375 880 -392 120 -6 192 -26 261
-73 220 -152 253 -451 69 -640 -50 -52 -104 -85 -176 -111 -56 -19 -81 -20
-544 -20 -436 0 -491 -2 -540 -18 -138 -44 -230 -132 -281 -266 -17 -47 -20
-74 -17 -154 3 -84 7 -106 34 -162 47 -96 128 -173 226 -213 48 -20 76 -22
313 -27 l260 -5 6 -45 c19 -156 128 -292 280 -349 81 -31 203 -29 291 5 78 30
156 94 203 169 45 71 57 109 64 204 l6 85 120 60 c204 103 341 216 464 380 37
50 71 98 74 106 4 8 16 30 27 47 24 41 77 163 96 223 77 246 73 545 -11 796
-110 328 -384 620 -705 751 -153 63 -270 88 -445 97 -168 9 -251 41 -342 132
-229 229 -122 617 192 699 49 12 139 15 530 15 498 0 521 2 613 49 90 46 173
146 207 249 12 39 16 77 13 145 -4 119 -41 202 -123 282 -108 104 -200 126
-507 124 -103 0 -192 2 -198 6 -5 3 -10 19 -10 35 0 55 -52 170 -104 230 -100
117 -258 171 -401 139z"/>
</g>
</svg>
