<?xml version="1.0" standalone="no"?>
<!DOCTYPE svg PUBLIC "-//W3C//DTD SVG 20010904//EN"
 "http://www.w3.org/TR/2001/REC-SVG-20010904/DTD/svg10.dtd">
<svg version="1.0" xmlns="http://www.w3.org/2000/svg"
 width="1536.000000pt" height="1536.000000pt" viewBox="0 0 1536.000000 1536.000000"
 preserveAspectRatio="xMidYMid meet">
<metadata>
Created by potrace 1.10, written by Peter Selinger 2001-2011
</metadata>
<g transform="translate(0.000000,1536.000000) scale(0.100000,-0.100000)"
fill="#000000" stroke="none">
<path d="M2380 12174 c-137 -17 -225 -45 -355 -114 -285 -150 -482 -426 -547
-765 -20 -105 -19 -5275 1 -5385 63 -349 253 -612 564 -779 109 -59 231 -94
379 -110 137 -15 8500 -15 8636 0 141 15 263 50 372 106 265 135 460 371 543
658 43 147 42 68 42 2815 0 2747 1 2668 -42 2815 -81 279 -271 515 -518 645
-133 70 -218 97 -365 115 -166 21 -8548 20 -8710 -1z m8765 -437 c155 -57 285
-161 356 -283 82 -143 89 -190 89 -606 l0 -348 -4850 0 -4850 0 0 358 c1 417
6 450 89 597 34 59 157 189 196 206 11 5 34 17 50 27 36 22 106 48 160 61 24
5 1740 8 4375 8 4174 -2 4337 -3 4385 -20z m447 -1677 c2 -5 1 -193 -2 -417
l-5 -408 -4845 0 -4845 0 -5 408 c-3 224 -3 412 -2 417 5 14 9699 14 9704 0z
m-2 -1262 c0 -7 0 -639 0 -1403 0 -1457 0 -1442 -42 -1555 -64 -169 -221 -315
-408 -377 -53 -17 -227 -18 -4400 -18 l-4345 0 -69 24 c-38 13 -83 32 -100 42
-17 10 -40 23 -51 28 -11 5 -52 40 -91 77 -67 66 -124 150 -152 224 -42 112
-41 80 -42 1545 0 770 0 1406 0 1413 0 9 977 12 4850 12 3873 0 4850 -3 4850
-12z"/>
<path d="M3321 7120 c-49 -12 -113 -60 -137 -104 -61 -108 -20 -231 98 -297
26 -15 407 -26 514 -14 87 9 144 48 179 120 29 62 31 95 10 156 -19 52 -55 93
-110 122 -37 21 -55 22 -280 24 -132 1 -255 -2 -274 -7z"/>
<path d="M4996 7115 c-53 -19 -85 -44 -119 -92 -24 -34 -29 -50 -29 -106 0
-86 31 -144 100 -184 l47 -28 260 0 c143 0 273 4 288 8 49 13 112 81 132 141
18 54 18 57 1 113 -23 73 -72 122 -145 146 -71 23 -473 24 -535 2z"/>
<path d="M6677 7112 c-122 -44 -181 -176 -126 -285 28 -56 46 -75 94 -101 38
-20 53 -21 305 -21 240 0 268 2 300 19 114 60 153 178 94 286 -57 105 -108
120 -397 120 -183 -1 -230 -4 -270 -18z"/>
<path d="M8367 7113 c-99 -33 -172 -151 -148 -241 15 -54 49 -101 100 -137
l43 -30 271 0 c259 0 274 1 312 21 51 28 69 48 96 109 49 110 -8 233 -129 277
-67 24 -473 25 -545 1z"/>
</g>
</svg>
