<?xml version="1.0" standalone="no"?>
<!DOCTYPE svg PUBLIC "-//W3C//DTD SVG 20010904//EN"
 "http://www.w3.org/TR/2001/REC-SVG-20010904/DTD/svg10.dtd">
<svg version="1.0" xmlns="http://www.w3.org/2000/svg"
 width="1536.000000pt" height="1536.000000pt" viewBox="0 0 1536.000000 1536.000000"
 preserveAspectRatio="xMidYMid meet">
<metadata>
Created by potrace 1.10, written by Peter Selinger 2001-2011
</metadata>
<g transform="translate(0.000000,1536.000000) scale(0.100000,-0.100000)"
fill="#000000" stroke="none">
<path d="M735 15350 c3 -5 -7 -15 -22 -21 -129 -51 -205 -126 -253 -251 -20
-53 -20 -68 -20 -6478 0 -6410 0 -6425 20 -6478 48 -126 131 -207 255 -251
l59 -21 4345 0 c3790 0 4362 2 4485 15 325 35 671 106 866 180 19 7 73 27 120
45 47 17 94 35 105 40 11 5 49 21 85 36 279 113 720 391 950 599 185 167 228
210 395 395 68 75 247 310 290 381 204 334 271 464 385 754 111 285 183 598
225 985 19 175 17 582 -4 745 -43 328 -132 712 -202 870 -5 11 -20 49 -33 85
-121 326 -358 739 -570 994 -322 388 -660 679 -1056 908 -149 87 -436 228
-463 228 -7 0 -17 4 -23 9 -5 5 -65 28 -134 51 -69 24 -134 46 -145 50 -44 16
-197 57 -315 84 -97 22 -174 36 -286 50 -55 7 -106 16 -112 20 -9 5 -12 312
-13 1289 0 705 -4 1320 -8 1367 -8 92 -26 139 -79 211 -50 68 -2988 2999
-3045 3038 -27 18 -64 37 -83 42 -19 6 -34 16 -34 24 0 13 -364 15 -2846 15
-1886 0 -2843 -3 -2839 -10z m5185 -809 c7 -13 10 -445 10 -1326 l0 -1305 30
-68 c47 -102 118 -168 233 -215 l52 -22 1313 -3 1312 -2 0 -1110 c0 -1046 -1
-1110 -17 -1118 -10 -5 -49 -13 -88 -17 -282 -29 -664 -135 -987 -274 -123
-52 -338 -163 -459 -237 -116 -70 -352 -232 -369 -254 -3 -3 -39 -32 -80 -65
-99 -77 -420 -399 -500 -500 -34 -44 -66 -82 -69 -85 -13 -10 -69 -86 -143
-195 -246 -361 -430 -768 -543 -1200 -37 -138 -66 -303 -89 -500 -52 -450 -12
-985 104 -1400 12 -44 26 -93 31 -110 33 -120 135 -387 198 -517 44 -90 159
-303 191 -353 11 -16 23 -37 27 -45 19 -37 142 -213 207 -295 171 -218 386
-443 562 -588 45 -37 84 -74 88 -82 5 -13 -315 -15 -2847 -13 l-2852 3 -3
5945 c-1 3270 0 5951 3 5958 3 9 481 12 2339 12 2299 0 2335 0 2346 -19z
m1595 -1341 c535 -535 776 -783 769 -790 -7 -7 -265 -9 -790 -8 l-779 3 -3
775 c-1 426 0 781 3 788 2 6 8 12 12 12 5 0 359 -351 788 -780z m2105 -4620
c229 -32 475 -90 640 -150 47 -17 97 -35 111 -39 14 -5 34 -13 45 -19 10 -5
84 -42 164 -81 170 -83 196 -97 315 -175 196 -129 334 -242 501 -413 254 -258
420 -500 592 -863 83 -176 189 -514 212 -683 5 -38 12 -72 15 -77 3 -4 12 -77
20 -162 35 -362 9 -696 -82 -1043 -41 -158 -125 -395 -182 -514 -26 -53 -55
-107 -132 -248 -135 -245 -408 -565 -662 -778 -108 -91 -309 -234 -392 -280
-144 -80 -303 -157 -405 -198 -152 -59 -398 -137 -435 -137 -10 0 -41 -6 -69
-14 -125 -35 -409 -66 -606 -66 -193 0 -486 32 -606 66 -28 8 -59 14 -68 14
-30 0 -315 90 -431 135 -157 63 -333 154 -530 278 -11 6 -80 57 -155 112 -142
105 -401 352 -518 495 -161 197 -349 511 -442 740 -12 30 -28 69 -35 85 -59
139 -155 527 -170 690 -3 33 -10 94 -15 135 -22 177 -5 517 36 735 38 199 107
456 148 550 8 16 24 55 36 85 46 114 129 279 190 380 57 93 203 307 219 320 3
3 26 30 51 60 42 51 97 113 180 199 42 43 208 192 269 241 233 187 592 384
871 477 194 64 438 121 600 139 36 3 90 10 120 14 79 12 499 4 600 -10z"/>
<path d="M2425 10671 c-94 -24 -209 -113 -251 -196 -82 -160 -61 -318 60 -452
52 -57 98 -86 181 -115 46 -15 165 -17 1581 -17 1476 -1 1533 0 1586 18 136
47 224 132 269 263 61 177 -31 383 -210 471 l-66 32 -1560 2 c-858 0 -1573 -2
-1590 -6z"/>
<path d="M2388 8970 c-70 -29 -121 -63 -161 -111 -49 -57 -70 -100 -93 -187
-18 -70 -18 -74 0 -144 26 -99 50 -143 116 -209 40 -40 73 -62 123 -82 l67
-27 1557 0 c1731 0 1588 -6 1699 67 109 71 169 185 169 323 0 138 -60 252
-169 323 -111 73 33 67 -1701 66 -1515 0 -1561 -1 -1607 -19z"/>
<path d="M2470 4349 c-87 -11 -178 -57 -233 -119 -55 -61 -78 -105 -102 -192
-23 -87 -12 -163 41 -268 22 -44 120 -140 165 -161 99 -48 115 -49 604 -49
428 0 467 1 521 19 117 38 187 91 237 180 94 165 69 354 -65 482 -65 62 -138
97 -229 109 -90 11 -848 11 -939 -1z"/>
<path d="M9164 7795 c-69 -22 -117 -51 -169 -103 -73 -73 -111 -159 -124 -277
-4 -37 -11 -60 -21 -65 -8 -4 -33 -15 -55 -26 -79 -36 -201 -122 -267 -187
-265 -263 -372 -669 -267 -1017 29 -95 92 -216 152 -290 119 -146 348 -292
667 -425 74 -30 143 -60 152 -65 10 -6 24 -10 33 -10 8 0 29 -6 47 -14 18 -8
75 -32 127 -52 140 -56 198 -122 208 -234 13 -142 -76 -292 -219 -367 -52 -28
-55 -28 -233 -28 -211 0 -260 13 -401 102 -152 97 -289 112 -434 47 -66 -29
-145 -105 -178 -170 -74 -148 -45 -338 71 -456 41 -42 216 -153 307 -195 67
-30 156 -61 235 -81 l69 -17 12 -65 c25 -131 48 -181 119 -252 150 -152 402
-152 554 0 79 79 116 172 124 312 l2 45 100 50 c130 65 193 108 289 197 175
161 288 360 352 618 27 110 25 375 -4 480 -74 271 -188 443 -393 598 -57 43
-200 121 -267 146 -56 21 -187 70 -282 105 -233 88 -432 201 -450 257 -19 56
7 151 57 210 55 64 219 92 353 60 59 -14 100 -35 176 -89 79 -56 135 -72 244
-71 102 1 164 21 238 76 107 82 168 243 142 377 -29 149 -94 226 -290 342 -79
48 -213 109 -237 109 -17 0 -29 28 -43 110 -27 150 -135 272 -278 316 -57 17
-162 17 -218 -1z"/>
</g>
</svg>
