<?xml version="1.0" standalone="no"?>
<!DOCTYPE svg PUBLIC "-//W3C//DTD SVG 20010904//EN"
 "http://www.w3.org/TR/2001/REC-SVG-20010904/DTD/svg10.dtd">
<svg version="1.0" xmlns="http://www.w3.org/2000/svg"
 width="1536.000000pt" height="1536.000000pt" viewBox="0 0 1536.000000 1536.000000"
 preserveAspectRatio="xMidYMid meet">
<metadata>
Created by potrace 1.10, written by Peter Selinger 2001-2011
</metadata>
<g transform="translate(0.000000,1536.000000) scale(0.100000,-0.100000)"
fill="#000000" stroke="none">
<path d="M7625 15166 c-5 -2 -45 -12 -88 -21 -42 -10 -80 -21 -83 -26 -3 -5
-11 -9 -19 -9 -28 0 -142 -77 -201 -136 -68 -68 -125 -157 -153 -242 -12 -35
-26 -58 -37 -60 -9 -2 -40 7 -68 21 -94 45 -160 60 -276 59 -183 -1 -316 -55
-441 -181 -113 -113 -164 -211 -189 -369 -11 -67 -11 -97 -1 -164 30 -194 69
-257 308 -499 106 -108 193 -201 193 -208 0 -7 -26 -24 -57 -38 -179 -81 -294
-210 -359 -403 -26 -77 -25 -272 1 -350 39 -120 78 -183 163 -268 46 -46 82
-87 80 -92 -3 -7 -192 -226 -269 -311 -69 -75 -361 -429 -484 -585 -172 -219
-468 -645 -561 -808 -21 -38 -47 -82 -57 -99 -84 -139 -190 -377 -247 -552
-11 -33 -25 -74 -30 -92 -26 -79 -69 -283 -84 -403 -43 -332 -8 -760 85 -1030
6 -19 18 -55 26 -80 8 -25 19 -54 23 -65 5 -11 21 -49 36 -85 194 -476 555
-906 1021 -1217 94 -62 336 -203 349 -203 2 0 28 -12 57 -26 79 -39 258 -106
387 -146 366 -113 614 -148 1034 -148 315 0 518 20 766 73 124 27 324 86 431
128 42 16 79 29 82 29 4 0 37 14 74 31 369 168 634 345 892 594 390 377 657
861 755 1370 56 291 56 686 0 907 -7 32 -14 68 -14 81 0 13 -6 43 -14 68 -7
24 -21 71 -31 104 -106 364 -274 692 -589 1150 -238 345 -628 829 -979 1215
-38 41 -73 82 -77 90 -6 12 13 38 75 103 131 135 185 264 185 442 0 112 -14
173 -62 275 -57 119 -167 228 -290 289 -49 24 -88 47 -88 53 0 5 77 86 171
180 94 94 188 194 209 222 208 275 151 686 -122 891 -119 89 -233 126 -388
127 -122 0 -189 -15 -289 -66 -52 -26 -81 -21 -81 14 0 33 -67 162 -115 222
-113 143 -289 232 -480 244 -38 2 -74 2 -80 0z m149 -446 c64 -31 93 -67 126
-159 55 -155 117 -231 240 -289 70 -33 81 -35 180 -36 l105 -1 98 49 c92 45
103 48 161 44 50 -3 70 -10 107 -36 59 -43 80 -81 87 -157 8 -104 -1 -116
-360 -475 l-320 -320 -512 0 -512 0 -331 333 c-361 363 -360 361 -350 466 5
61 29 109 68 139 88 69 154 70 287 5 95 -46 99 -47 197 -47 102 -1 121 4 224
53 48 23 134 109 161 160 12 24 29 67 37 95 8 28 25 69 38 92 54 93 171 130
269 84z m921 -1819 c70 -31 125 -113 125 -186 0 -75 -55 -155 -128 -186 -42
-18 -88 -19 -1001 -19 -690 0 -968 3 -992 11 -90 31 -139 100 -139 199 0 86
37 143 119 181 33 16 115 17 1006 18 918 1 972 0 1010 -18z m-103 -938 c58
-65 117 -129 130 -143 12 -13 54 -61 92 -105 38 -44 72 -82 75 -85 4 -3 45
-50 91 -105 47 -55 87 -102 91 -105 3 -3 66 -79 140 -170 184 -225 414 -533
538 -720 57 -85 112 -167 122 -182 11 -15 19 -29 19 -32 0 -2 27 -50 60 -105
99 -167 201 -389 240 -526 5 -16 18 -61 30 -100 11 -38 25 -97 31 -129 5 -33
12 -63 15 -67 8 -14 34 -293 34 -374 0 -173 -51 -485 -96 -593 -8 -18 -14 -38
-14 -44 0 -18 -70 -188 -115 -279 -181 -366 -494 -703 -867 -935 -189 -117
-416 -221 -624 -284 -38 -12 -85 -26 -104 -32 -36 -12 -50 -15 -185 -43 -248
-51 -636 -68 -920 -41 -93 9 -195 21 -225 27 -97 19 -223 49 -295 70 -38 11
-83 24 -100 29 -88 25 -304 114 -378 154 -23 13 -68 37 -99 55 -137 75 -204
120 -352 235 -380 297 -670 733 -786 1181 -48 184 -54 241 -54 505 -1 291 10
375 80 620 15 51 22 73 62 175 137 358 457 852 920 1420 70 85 353 418 362
425 4 3 40 43 80 90 62 72 224 252 283 312 16 17 58 18 815 18 l798 0 106
-117z"/>
<path d="M7597 11041 c-87 -41 -126 -108 -127 -213 0 -93 -10 -115 -61 -128
-70 -19 -211 -85 -269 -125 -168 -118 -279 -284 -311 -470 -15 -86 -6 -261 16
-330 58 -181 211 -348 395 -434 61 -28 177 -71 220 -81 19 -5 53 -13 75 -18
87 -22 184 -42 200 -42 30 0 188 -51 253 -82 68 -33 141 -97 166 -147 42 -81
41 -196 -3 -261 -88 -130 -337 -211 -555 -181 -151 22 -238 62 -326 150 -46
47 -72 82 -86 121 -12 30 -27 70 -35 89 -31 82 -104 131 -194 131 -91 0 -154
-42 -194 -130 -26 -57 -26 -89 -1 -169 53 -169 160 -319 303 -427 65 -49 252
-144 283 -144 25 0 107 -32 116 -44 4 -6 8 -45 8 -86 0 -90 24 -148 81 -193
95 -75 237 -50 306 54 23 35 28 54 31 130 3 49 10 93 16 98 6 5 38 16 71 25
290 80 490 230 584 438 41 90 55 180 48 308 -12 223 -108 392 -302 535 -142
104 -291 160 -585 220 -225 45 -304 76 -386 148 -65 57 -86 105 -86 192 1 113
45 193 143 256 85 54 177 79 295 79 109 0 171 -16 265 -67 62 -33 149 -125
180 -190 36 -76 70 -114 124 -139 61 -29 109 -30 166 -5 115 51 159 172 107
294 -61 144 -213 320 -344 398 -66 39 -207 99 -233 99 -9 0 -26 7 -37 15 -18
12 -22 27 -26 108 -4 83 -9 100 -34 138 -57 84 -171 120 -257 80z"/>
<path d="M4767 13610 c-57 -17 -91 -56 -147 -165 -30 -59 -60 -114 -65 -124
-122 -201 -304 -368 -520 -477 -176 -89 -209 -126 -210 -239 0 -107 27 -142
171 -217 60 -31 116 -60 124 -64 8 -4 56 -38 105 -75 104 -77 213 -188 276
-280 59 -87 61 -90 120 -207 56 -113 88 -144 165 -168 77 -23 178 11 220 74
10 15 41 72 69 128 133 264 347 471 625 601 82 38 126 82 147 150 15 46 15 60
4 106 -18 71 -66 119 -176 174 -276 138 -480 341 -606 600 -57 117 -100 167
-156 182 -44 13 -106 13 -146 1z m120 -688 c47 -62 184 -201 250 -254 35 -27
63 -56 63 -63 0 -8 -26 -34 -57 -58 -59 -45 -197 -185 -266 -267 l-37 -45 -38
45 c-62 75 -224 237 -274 275 -27 19 -48 42 -48 49 0 8 19 29 43 47 68 53 195
179 253 251 35 43 59 65 69 62 7 -3 26 -22 42 -42z"/>
<path d="M10429 13611 c-56 -18 -89 -55 -140 -155 -82 -162 -153 -262 -268
-376 -115 -114 -225 -193 -361 -257 -95 -45 -134 -79 -161 -138 -35 -75 -16
-166 47 -229 16 -16 70 -49 119 -73 160 -79 227 -125 347 -242 108 -104 194
-225 277 -387 41 -80 60 -107 91 -128 56 -37 111 -47 170 -32 79 21 113 54
166 163 95 198 236 373 395 490 43 32 138 90 211 129 112 59 138 77 163 114
26 40 29 53 29 118 -1 110 -24 137 -192 227 -218 116 -362 237 -478 400 -53
75 -64 95 -133 230 -59 114 -99 145 -192 151 -35 2 -76 0 -90 -5z m198 -779
c36 -40 103 -105 149 -144 46 -39 84 -77 84 -84 0 -6 -21 -29 -47 -49 -57 -46
-211 -200 -269 -270 l-42 -50 -33 39 c-74 87 -217 230 -271 273 -32 24 -58 50
-58 58 0 8 26 34 58 58 54 43 200 189 270 273 l34 39 30 -35 c16 -19 59 -68
95 -108z"/>
<path d="M3360 10946 c-84 -22 -105 -45 -184 -202 -126 -249 -321 -444 -571
-569 -127 -64 -169 -99 -196 -162 -25 -59 -24 -97 5 -159 28 -60 60 -86 176
-144 168 -83 325 -206 430 -337 78 -96 100 -131 167 -263 73 -145 128 -190
234 -190 44 0 128 42 153 77 11 14 40 68 67 119 75 148 135 231 248 344 113
112 220 189 364 260 133 66 177 121 177 220 0 28 -7 65 -16 83 -17 34 -83 107
-96 107 -20 0 -151 70 -239 127 -175 115 -325 286 -431 491 -34 64 -72 129
-86 144 -49 53 -128 74 -202 54z m83 -673 c87 -104 202 -219 283 -284 62 -49
62 -52 -13 -112 -70 -56 -192 -179 -253 -256 -42 -52 -62 -51 -100 6 -32 48
-224 240 -273 273 -20 14 -37 30 -37 36 0 6 24 31 53 55 86 72 185 170 244
242 30 37 59 67 64 67 5 0 19 -12 32 -27z"/>
<path d="M11895 10948 c-68 -18 -109 -59 -160 -163 -100 -201 -231 -366 -385
-482 -85 -64 -105 -77 -230 -141 -58 -29 -113 -61 -124 -70 -61 -55 -79 -187
-36 -256 27 -45 66 -74 150 -116 157 -78 238 -135 353 -247 121 -118 223 -263
273 -387 53 -134 186 -199 299 -147 56 26 87 63 136 161 140 284 336 481 612
616 153 74 202 147 178 264 -16 78 -52 117 -162 173 -191 98 -262 148 -385
274 -99 101 -165 194 -238 338 -65 127 -102 166 -176 183 -58 13 -51 14 -105
0z m153 -752 c50 -57 129 -136 176 -175 47 -39 87 -75 91 -80 3 -6 -16 -26
-42 -46 -63 -47 -206 -187 -256 -250 -64 -81 -69 -82 -111 -27 -51 65 -209
224 -267 269 -27 20 -49 42 -49 49 0 6 40 45 89 87 81 69 213 208 243 257 7
11 18 20 24 20 6 0 52 -47 102 -104z"/>
<path d="M4310 6835 c-155 -22 -341 -77 -475 -140 -103 -48 -139 -66 -220
-110 -81 -43 -209 -117 -305 -174 -19 -11 -42 -24 -50 -28 -8 -4 -69 -39 -135
-78 -66 -39 -127 -74 -135 -78 -8 -4 -28 -15 -45 -26 -16 -10 -88 -52 -160
-93 -401 -231 -464 -268 -511 -296 -145 -85 -162 -93 -177 -77 -8 8 -42 63
-75 122 -70 125 -143 205 -229 250 -170 90 -340 84 -516 -17 -38 -22 -70 -40
-72 -40 -2 0 -49 -27 -105 -60 -56 -33 -103 -60 -105 -60 -2 0 -26 -13 -53
-29 -27 -16 -76 -44 -108 -62 -150 -82 -215 -142 -265 -242 -86 -169 -73 -347
36 -533 25 -41 45 -77 45 -79 0 -2 27 -49 60 -104 33 -56 60 -103 60 -106 0
-2 13 -26 29 -53 15 -26 39 -68 53 -93 14 -24 61 -107 105 -184 43 -78 82
-147 86 -155 4 -8 16 -28 26 -45 11 -16 29 -48 41 -70 59 -108 135 -241 150
-265 6 -8 13 -22 17 -30 4 -8 26 -48 50 -88 24 -40 43 -75 43 -77 0 -2 20 -39
45 -81 25 -41 45 -77 45 -79 0 -4 84 -150 100 -175 6 -8 13 -22 17 -30 4 -8
39 -71 78 -140 40 -69 83 -145 97 -170 14 -25 65 -115 113 -200 48 -85 99
-175 113 -200 14 -25 57 -101 97 -170 39 -69 74 -132 78 -140 51 -102 157
-206 257 -251 44 -20 168 -49 207 -49 55 0 179 38 248 75 39 21 131 72 205
115 74 42 158 89 185 104 251 140 318 206 375 372 27 78 27 207 -1 294 -11 35
-39 98 -63 140 -24 41 -56 98 -71 125 -15 28 -32 56 -38 63 -7 9 -3 20 13 37
13 14 27 25 31 25 4 0 53 27 108 60 56 33 111 60 124 60 21 0 185 -41 362 -90
44 -12 94 -26 110 -30 17 -4 46 -12 65 -18 69 -21 198 -56 380 -102 69 -18
145 -38 170 -45 25 -7 74 -20 110 -30 36 -10 85 -23 110 -30 25 -7 74 -20 110
-30 36 -10 85 -23 110 -30 25 -7 101 -27 170 -45 69 -17 149 -38 177 -46 29
-8 79 -21 110 -30 90 -24 165 -44 203 -56 19 -6 51 -15 70 -19 19 -4 67 -16
105 -27 468 -136 891 -99 1260 111 71 41 359 217 524 322 35 22 83 51 106 65
81 48 260 157 305 186 25 16 54 34 65 41 20 12 284 174 330 203 13 8 101 62
195 120 94 58 182 112 195 120 13 8 90 56 171 105 81 50 157 97 170 105 13 8
106 66 206 127 101 62 278 171 393 242 116 71 284 175 375 231 277 170 493
304 540 334 160 102 262 245 321 451 30 105 32 335 5 430 -63 220 -160 357
-327 465 -131 84 -265 119 -460 120 -173 0 -295 -22 -499 -90 -114 -39 -305
-124 -390 -176 -19 -11 -60 -34 -91 -51 -30 -17 -138 -79 -240 -138 -301 -177
-411 -241 -459 -268 -25 -14 -91 -52 -148 -86 -57 -34 -106 -61 -110 -61 -3 0
-13 -6 -21 -14 -9 -7 -43 -28 -76 -46 -33 -18 -118 -68 -190 -110 -71 -42
-188 -111 -260 -152 -71 -42 -146 -85 -165 -97 -19 -11 -42 -24 -50 -28 -8 -4
-53 -30 -100 -58 -150 -91 -291 -157 -305 -144 -3 3 2 28 11 55 67 211 54 407
-41 593 -36 72 -75 125 -143 195 -69 71 -114 102 -218 154 -77 38 -121 51
-289 87 -44 9 -98 21 -120 27 -22 5 -58 13 -80 18 -42 9 -364 99 -450 125 -27
9 -63 20 -80 25 -46 13 -479 164 -575 200 -47 17 -99 35 -115 39 -17 4 -39 13
-50 18 -29 15 -369 128 -440 146 -146 38 -305 45 -465 22z m290 -419 c80 -13
204 -51 480 -147 63 -22 124 -45 135 -51 11 -6 33 -15 50 -19 16 -4 67 -21
113 -38 85 -31 465 -158 557 -186 28 -8 78 -24 113 -35 75 -24 291 -82 417
-111 50 -11 115 -27 146 -35 30 -8 67 -14 81 -14 75 0 213 -98 262 -185 48
-87 49 -222 1 -313 -25 -48 -87 -106 -142 -133 -63 -31 -219 -39 -302 -16 -31
9 -123 32 -206 51 -197 48 -360 90 -465 121 -47 14 -107 32 -135 40 -112 32
-161 46 -190 55 -130 40 -234 61 -279 56 -163 -18 -242 -219 -134 -342 41 -46
82 -66 203 -98 115 -30 170 -45 275 -76 41 -12 91 -25 110 -30 19 -5 60 -16
90 -26 202 -61 657 -172 810 -198 284 -47 303 -48 475 -44 206 6 289 22 470
90 69 26 238 108 285 138 32 21 316 187 330 193 8 4 22 11 30 17 8 5 74 44
145 85 72 42 137 80 145 85 8 5 29 17 45 26 17 9 93 53 170 99 198 115 471
275 670 390 344 199 390 226 405 235 136 82 371 175 542 214 119 28 291 16
358 -25 8 -5 25 -13 36 -18 38 -17 94 -83 124 -147 27 -56 30 -72 30 -161 0
-138 -36 -236 -106 -291 -35 -27 -134 -92 -141 -92 -2 0 -23 -12 -46 -27 -23
-16 -51 -33 -62 -40 -11 -7 -78 -48 -150 -92 -194 -121 -523 -323 -765 -471
-118 -72 -271 -167 -340 -210 -136 -85 -275 -170 -300 -183 -8 -4 -71 -43
-140 -87 -69 -43 -212 -132 -318 -197 -106 -65 -203 -125 -217 -133 -13 -8
-101 -62 -195 -120 -94 -58 -181 -112 -194 -120 -13 -8 -90 -55 -171 -105 -80
-49 -157 -97 -170 -105 -158 -101 -456 -273 -515 -297 -235 -95 -463 -100
-795 -17 -99 25 -200 51 -225 59 -25 7 -71 20 -102 29 -32 9 -84 23 -115 32
-32 9 -71 20 -88 24 -16 5 -93 25 -170 45 -157 41 -312 81 -335 88 -38 11
-209 59 -295 82 -33 8 -73 20 -90 25 -16 5 -70 18 -120 30 -49 12 -110 28
-135 35 -25 7 -74 20 -110 30 -103 27 -252 67 -330 90 -102 29 -234 63 -328
85 -89 21 -95 21 -143 6 -28 -9 -95 -44 -150 -76 -56 -33 -103 -60 -105 -60
-2 0 -33 -18 -70 -40 -50 -31 -69 -38 -79 -30 -13 11 -63 91 -117 190 -14 25
-75 134 -137 243 -61 109 -121 214 -132 235 -11 20 -24 44 -29 52 -23 36 -100
171 -100 174 0 3 -27 50 -60 106 -33 56 -60 103 -60 105 0 2 -20 38 -45 79
-25 42 -45 79 -45 81 0 4 -82 147 -100 175 -6 8 -14 25 -20 37 -5 12 -20 39
-33 60 -48 75 -47 76 48 132 47 28 87 51 90 51 2 0 64 35 137 78 73 44 198
117 278 163 80 46 154 89 165 96 11 7 27 16 35 20 8 4 59 33 113 65 54 32 100
58 102 58 1 0 71 41 154 90 84 50 154 90 156 90 2 0 48 27 103 59 234 138 434
218 617 246 107 17 145 17 245 1z m-3007 -686 c14 -11 43 -51 64 -88 21 -37
43 -76 50 -87 7 -11 15 -27 19 -35 4 -8 42 -76 85 -150 42 -74 85 -151 96
-170 11 -19 70 -124 132 -233 61 -109 121 -214 132 -235 11 -20 24 -44 29 -52
23 -36 100 -171 100 -174 0 -3 20 -39 45 -80 25 -42 45 -79 45 -81 0 -3 11
-22 23 -43 13 -20 56 -93 94 -162 39 -69 79 -141 90 -160 105 -185 180 -318
186 -330 4 -8 11 -22 17 -30 17 -26 100 -170 100 -174 0 -3 19 -37 43 -78 24
-40 46 -80 50 -88 4 -8 11 -22 17 -30 17 -27 100 -172 100 -175 0 -2 13 -26
29 -53 67 -113 91 -162 91 -182 0 -23 -49 -76 -85 -91 -11 -5 -27 -13 -35 -19
-8 -5 -78 -45 -155 -89 -77 -43 -156 -88 -175 -99 -19 -11 -63 -35 -96 -53
-96 -50 -116 -37 -204 126 -24 44 -61 108 -82 143 -21 34 -38 64 -38 66 0 3
-20 39 -45 80 -25 42 -45 79 -45 81 0 2 -19 37 -43 77 -24 40 -46 80 -50 88
-4 8 -15 29 -25 45 -11 17 -50 86 -89 155 -39 69 -80 143 -93 165 -27 47 -157
277 -179 318 -9 16 -20 36 -26 46 -10 17 -41 71 -253 446 -69 121 -144 254
-167 295 -23 41 -51 91 -62 110 -11 19 -60 105 -108 190 -48 85 -99 175 -113
200 -14 25 -28 50 -32 55 -31 43 -90 169 -90 192 0 43 26 62 225 173 22 12 94
53 160 90 66 38 140 80 165 94 55 31 70 32 103 6z"/>
<path d="M1364 5401 c-177 -81 -159 -353 29 -415 60 -20 82 -20 142 0 148 51
200 242 97 356 -19 22 -53 48 -73 59 -50 25 -140 25 -195 0z"/>
</g>
</svg>
